<?xml version="1.0" encoding="UTF-8"?>
<svg id="Layer_1" xmlns="http://www.w3.org/2000/svg" version="1.1" viewBox="0 0 512 512">
  <!-- Generator: Adobe Illustrator 29.5.0, SVG Export Plug-In . SVG Version: 2.1.0 Build 137)  -->
  <defs>
    <style>
      .st0 {
        fill: #071322;
      }
    </style>
  </defs>
  <path class="st0" d="M256,0C114.84,0,0,114.84,0,256s114.84,256,256,256,256-114.84,256-256S397.16,0,256,0ZM376.85,353.86l-11.14,12.8c-11.75,11.78-27.24,17.34-42.67,17.34-79.23,0-195.05-109.72-195.05-195.05,0-15.42,5.57-30.91,17.34-42.67l12.8-11.14c9.51-9.51,24.96-9.51,34.47,0l21.33,27.78c9.51,9.51,9.51,24.96,0,34.47l-18.15,22.81c19.22,47.87,51.82,79.15,96,96l22.81-18.15c9.51-9.51,24.96-9.51,34.47,0l27.78,21.33c9.51,9.51,9.51,24.96,0,34.47h0Z"/>
</svg>