<?xml version="1.0" encoding="UTF-8"?>
<svg id="Filled" xmlns="http://www.w3.org/2000/svg" version="1.1" viewBox="0 0 512 512">
  <!-- Generator: Adobe Illustrator 29.5.0, SVG Export Plug-In . SVG Version: 2.1.0 Build 137)  -->
  <defs>
    <style>
      .st0 {
        fill: #071322;
      }
    </style>
  </defs>
  <path class="st0" d="M511.02,118.23l-179.58,179.58c-41.69,41.59-109.18,41.59-150.87,0L.98,118.23c-.3,3.37-.98,6.42-.98,9.77v256c.07,58.88,47.79,106.6,106.67,106.67h298.67c58.88-.07,106.6-47.79,106.67-106.67V128c0-3.35-.68-6.4-.98-9.77Z"/>
  <path class="st0" d="M301.27,267.65l194.86-194.88c-19.2-31.83-53.62-51.33-90.79-51.43H106.67c-37.17.1-71.6,19.6-90.79,51.43l194.86,194.88c25.03,24.93,65.51,24.93,90.54,0Z"/>
</svg>