<?xml version="1.0" encoding="UTF-8"?>
<svg id="Layer_1" data-name="Layer 1" xmlns="http://www.w3.org/2000/svg" viewBox="0 0 1806.15 158.86">
  <defs>
    <style>
      .cls-1 {
        fill: #071322;
      }
    </style>
  </defs>
  <path class="cls-1" d="M1206.68,76.78c-4.12,7.44-10.46,13.44-19,18.01-8.54,4.57-19.15,6.85-31.82,6.85h-23.42v55.68h-37.78V2.21h61.21c12.37,0,22.83,2.14,31.37,6.41,8.54,4.27,14.95,10.16,19.22,17.68,4.27,7.51,6.41,16.13,6.41,25.85,0,8.99-2.07,17.2-6.19,24.64ZM1169.12,66.5c3.53-3.39,5.3-8.17,5.3-14.36s-1.77-10.97-5.3-14.36c-3.54-3.39-8.92-5.08-16.13-5.08h-20.55v38.89h20.55c7.21,0,12.59-1.69,16.13-5.08ZM1309.42,157.32l-32.26-58.55h-9.06v58.55h-37.78V2.21h63.41c12.22,0,22.65,2.14,31.26,6.41,8.62,4.27,15.06,10.13,19.33,17.56,4.27,7.44,6.41,15.73,6.41,24.86,0,10.31-2.91,19.52-8.73,27.62-5.82,8.1-14.4,13.85-25.74,17.23l35.79,61.42h-42.64ZM1268.1,72.03h23.42c6.92,0,12.11-1.69,15.58-5.08,3.46-3.39,5.19-8.17,5.19-14.36s-1.73-10.53-5.19-13.92c-3.46-3.39-8.66-5.08-15.58-5.08h-23.42v38.45ZM1607.7,38.44c-7.14-12.08-16.79-21.5-28.94-28.28-12.15-6.77-25.52-10.16-40.1-10.16h-93.13c-14.58,0-27.95,3.39-40.1,10.16-12.15,6.78-21.8,16.21-28.94,28.28-7.15,12.08-10.72,25.71-10.72,40.87s3.57,28.84,10.72,40.99c7.14,12.15,16.79,21.62,28.94,28.39,12.15,6.78,25.52,10.16,40.1,10.16h93.13c14.58,0,27.95-3.39,40.1-10.16,12.15-6.77,21.8-16.24,28.94-28.39,7.15-12.15,10.72-25.81,10.72-40.99s-3.57-28.79-10.72-40.87ZM1568.59,112.13c-7.44,8.17-17.42,12.26-29.94,12.26h-93.13c-12.52,0-22.5-4.09-29.94-12.26-7.44-8.17-11.16-19.11-11.16-32.81s3.72-24.82,11.16-32.92c7.44-8.1,17.42-12.15,29.94-12.15h93.13c12.52,0,22.5,4.05,29.94,12.15,7.44,8.1,11.16,19.08,11.16,32.92s-3.72,24.64-11.16,32.81ZM1730.41,2.21v89.91h-18.03v-58.48l-24.09,58.48h-13.66l-24.21-58.48v58.48h-18.04V2.21h20.48l28.6,66.85,28.6-66.85h20.35ZM1806.15,2.21v14.56h-23.96v75.35h-18.03V16.77h-23.96V2.21h65.95ZM167.47,132.65h51.07l-8.88,24.63h-73.26V2.4h31.07v130.25ZM304.37,103.03h22.41l-22.41-64.79-30.84,89.65-10.21,29.51h-32.62L286.4,2.28h36.17l55.7,155.11h-32.84l-10.21-29.51h-30.73l-.11-24.85ZM1003.49,103.03h22.41l-22.41-64.79-30.84,89.65-10.21,29.51h-32.62L985.51,2.28h36.17l55.7,155.11h-32.84l-10.21-29.51h-30.73l-.11-24.85ZM494.18,2.4l-52.37,100.96v53.92h-31.07v-53.92L358.16,2.4h35.06l33.28,70.78L459.57,2.4h34.62ZM544.22,132.65h51.04v24.63h-82.1V2.4h31.07v130.25ZM651.31,2.4v154.88h-31.07V2.4h31.07ZM771,157.28l-56.36-69.01v69.01h-31.07V2.4h31.07v69.45L771,2.4h37.5l-63.91,76.78,65.68,78.11h-39.28ZM856.66,132.09v-41.04h52.15v-24.64h-52.15V27.57h58.79V2.29h-89.87v155.1h83.18l9.09-25.3h-61.19ZM107.14,73.56c-3.92,7.26-10.07,13.1-18.43,17.54-8.36,4.44-18.91,6.66-31.64,6.66h-25.98v59.51H0V2.28h57.07c11.99,0,22.21,2.07,30.64,6.22,8.44,4.15,14.77,9.85,18.99,17.1,4.22,7.25,6.33,15.47,6.33,24.65,0,8.29-1.96,16.06-5.88,23.32ZM74.83,66.79c4.14-3.92,6.22-9.44,6.22-16.54,0-15.1-8.44-22.65-25.31-22.65h-24.65v45.08h24.65c8.58,0,14.95-1.96,19.1-5.88Z"/>
</svg>